<?xml version="1.0" standalone="no"?>
<!DOCTYPE svg PUBLIC "-//W3C//DTD SVG 20010904//EN"
 "http://www.w3.org/TR/2001/REC-SVG-20010904/DTD/svg10.dtd">
<svg version="1.0" xmlns="http://www.w3.org/2000/svg"
 width="512.000000pt" height="512.000000pt" viewBox="0 0 512.000000 512.000000"
 preserveAspectRatio="xMidYMid meet">
<metadata>
Created by potrace 1.11, written by Peter Selinger 2001-2013
</metadata>
<g transform="translate(0.000000,512.000000) scale(0.100000,-0.100000)"
fill="#000000" stroke="none">
<path d="M2487 4724 c-1 -1 -38 -4 -82 -8 -228 -18 -426 -72 -645 -177 -128
-62 -311 -178 -336 -213 -22 -31 -17 -74 11 -101 36 -36 76 -33 138 13 46 34
88 61 152 99 109 65 335 153 455 178 8 2 35 8 60 14 140 32 506 35 610 6 8 -2
26 -6 40 -9 197 -34 422 -130 621 -262 106 -71 136 -78 174 -39 32 31 32 76 3
109 -66 73 -367 236 -545 295 -86 29 -224 63 -303 75 -83 12 -344 27 -353 20z"/>
<path d="M2408 4395 c-2 -2 -21 -6 -43 -9 -222 -35 -463 -153 -622 -306 -43
-41 -53 -56 -53 -83 1 -49 43 -90 86 -82 10 2 21 4 24 4 3 1 28 22 55 47 116
108 279 196 445 242 85 23 113 26 260 26 153 1 172 -2 265 -28 176 -51 298
-118 437 -237 76 -66 102 -70 146 -22 38 41 29 70 -42 140 -147 143 -374 256
-599 297 -65 11 -349 20 -359 11z"/>
<path d="M688 4318 c-41 -8 -103 -44 -130 -75 -31 -35 -59 -111 -59 -165 -1
-34 8 -76 25 -118 14 -36 62 -164 106 -285 45 -121 109 -292 142 -380 51 -137
128 -343 198 -530 10 -27 51 -138 90 -245 40 -107 76 -204 81 -215 23 -54 80
-217 77 -220 -2 -2 -136 -5 -298 -7 -291 -3 -296 -3 -353 -29 -110 -49 -188
-133 -226 -245 -18 -54 -20 -87 -21 -349 l-1 -289 183 -183 183 -183 1875 0
1875 0 183 183 183 184 -3 304 c-3 297 -4 305 -28 364 -37 89 -134 182 -225
217 -70 26 -72 26 -355 28 -156 0 -286 3 -288 5 -4 3 80 237 143 400 13 33 67
177 120 320 52 143 98 267 102 275 3 8 7 20 9 25 1 6 17 46 34 90 17 44 37 98
44 120 8 22 71 192 140 378 138 368 145 397 109 478 -43 97 -118 149 -212 149
-119 0 -185 -59 -267 -238 -31 -70 -71 -156 -87 -192 -16 -36 -51 -112 -78
-169 -27 -57 -49 -105 -49 -106 0 -2 -15 -36 -34 -77 -18 -40 -68 -149 -111
-243 -42 -93 -101 -222 -130 -285 -29 -63 -63 -137 -75 -165 -12 -27 -40 -88
-61 -133 -22 -46 -39 -86 -39 -87 0 -2 -25 -56 -55 -120 -30 -65 -55 -119 -55
-120 0 -2 -21 -48 -46 -102 -26 -54 -57 -122 -70 -150 l-23 -53 -651 0 -651 0
-41 88 c-22 48 -57 125 -78 172 -47 106 -83 185 -125 275 -18 39 -54 117 -80
175 -48 107 -59 130 -139 304 -25 54 -46 100 -46 102 0 1 -18 42 -41 91 -34
73 -159 347 -266 583 -120 264 -161 346 -191 377 -57 58 -142 87 -214 71z m98
-179 c13 -12 29 -36 37 -53 8 -17 33 -71 55 -121 48 -107 237 -522 281 -618
17 -37 31 -69 31 -71 0 -2 18 -43 41 -91 44 -95 55 -119 152 -335 36 -80 78
-174 95 -210 57 -122 252 -553 252 -556 0 -2 -76 -4 -170 -4 -107 0 -170 4
-170 10 0 5 -108 299 -241 652 -132 354 -242 648 -243 653 -2 6 -6 17 -9 25
-38 91 -240 640 -241 655 -3 31 15 65 43 80 32 16 58 12 87 -16z m3634 14 c33
-22 40 -33 40 -65 0 -21 -114 -339 -317 -878 -13 -36 -35 -96 -49 -135 -14
-38 -29 -79 -34 -90 -5 -11 -48 -126 -95 -255 -48 -129 -95 -257 -106 -285
-11 -27 -45 -120 -77 -205 l-58 -155 -167 -3 c-92 -1 -167 -1 -167 2 0 2 17
42 39 88 21 45 104 227 184 403 80 176 158 349 175 385 29 63 221 487 327 720
65 143 89 197 130 285 17 39 42 93 55 122 16 36 33 57 54 67 39 19 37 19 66
-1z m61 -2248 c49 -17 108 -68 136 -118 15 -28 18 -68 21 -292 l3 -260 -138
-137 -138 -138 -1805 0 -1805 0 -137 137 -138 137 0 241 c0 259 7 302 53 355
30 34 82 70 115 80 15 5 873 9 1908 9 1663 1 1886 -1 1925 -14z"/>
<path d="M783 1738 c-155 -74 -190 -269 -70 -387 73 -73 55 -71 812 -71 754 0
730 -2 804 72 66 67 85 148 56 244 -16 54 -46 91 -107 132 l-42 27 -705 2
c-694 2 -707 2 -748 -19z m1416 -148 c25 -13 45 -64 37 -95 -14 -56 -5 -56
-732 -53 l-666 3 -20 25 c-25 31 -18 87 14 112 21 16 70 18 686 18 406 0 670
-4 681 -10z"/>
<path d="M3352 1742 c-85 -34 -152 -129 -152 -217 0 -88 56 -180 133 -221 45
-24 149 -27 198 -6 53 23 112 82 132 132 19 50 16 153 -6 195 -61 112 -191
162 -305 117z m127 -157 c31 -15 41 -33 41 -69 0 -29 -43 -76 -69 -76 -81 0
-118 83 -61 140 24 24 51 25 89 5z"/>
<path d="M4154 1744 c-82 -29 -154 -132 -154 -219 0 -133 112 -245 245 -245
92 0 191 73 221 162 63 192 -121 370 -312 302z m125 -159 c31 -15 41 -33 41
-69 0 -29 -43 -76 -69 -76 -81 0 -118 83 -61 140 24 24 51 25 89 5z"/>
<path d="M2430 4064 c-152 -23 -292 -83 -412 -175 -62 -49 -95 -84 -103 -110
-9 -26 15 -70 46 -88 34 -19 65 -9 114 35 127 114 297 183 457 186 198 3 344
-47 496 -172 41 -33 84 -60 96 -60 48 0 92 61 76 105 -10 25 -47 63 -113 113
-184 141 -423 201 -657 166z"/>
<path d="M2473 3662 c-194 -78 -203 -349 -14 -438 167 -80 359 58 337 243 -8
66 -23 97 -71 145 -65 64 -166 84 -252 50z m145 -165 c7 -8 15 -30 19 -50 5
-30 1 -40 -22 -61 -31 -29 -70 -33 -102 -11 -24 17 -38 64 -28 95 14 44 98 61
133 27z"/>
</g>
</svg>
